# xmcd CD database file
#
# Track frame offsets:
#	150
#	16361
#	30824
#	45423
#	58846
#	69333
#	84174
#	95542
#	107571
#	122336
#	136928
#	151591
#	161821
#	173439
#	192376
#	203287
#	214415
#	230560
#	247611
#	261484
#	271785
#	285796
#	294821
#	306699
#
# Disc length: 4219 seconds
#
# Revision: 0
# Processed by: cddbd v1.5.2PL0 Copyright (c) Steve Scherf et al.
# Submitted via: CDex 1.70beta2
#
DISCID=31107918
DTITLE=Jones Country - Jones Country JCY-030 (Christmas)
DYEAR=0000
DGENRE=Country
TTITLE0=A-Strings and Kathy Mattea/Christmas Song
TTITLE1=Bellamy Brothers/It's So Close To Christmas (And I'm So Far From Home)
TTITLE2=Charlie Daniels/Christmas Time Down South
TTITLE3=Crystal Gayle/Rudolph, The Red-Nosed Reindeer
TTITLE4=Mickey Gilley and Libby Hurley/Rockin' Around The Christmas Tree
TTITLE5=Lee Greenwood/Lone Star Christmas
TTITLE6=Merle Haggard/Goin' Home For Christmas
TTITLE7=Barbara Mandrell/Winter Wonderland
TTITLE8=Ronnie Milsap/I'll Be Home For Christmas
TTITLE9=Michael Martin Murphey/ Christmas Cowboy Style
TTITLE10=Michael Martin Murphey/Christmas Trail
TTITLE11=Michael Martin Murphey/Santa Claus Is Comin' To Town
TTITLE12=Anne Murray/Christmas Wishes
TTITLE13=Anne Murray/Silent Night
TTITLE14=Willie Nelson/Frosty The Snowman
TTITLE15=Willie Nelson/Winter Wonderland
TTITLE16=Nitty Gritty Dirt Band/Colorado Christmas
TTITLE17=Oak Ridge Boys/Christmas Is Paintin' The Town
TTITLE18=Mike Reid/O Come, O Come Emmanuel
TTITLE19=Marty Robbins/Joy Of Christmas
TTITLE20=Kenny Rogers/Christmas In America
TTITLE21=Statler Brothers/Christmas Country Style
TTITLE22=Statler Brothers/Whose Birthday Is Christmas
TTITLE23=Sweethearts Of The Rodeo/Jingle Bell Rock
EXTD=YEAR: 0000
EXTT0=
EXTT1=
EXTT2=
EXTT3=
EXTT4=
EXTT5=
EXTT6=
EXTT7=
EXTT8=
EXTT9=
EXTT10=
EXTT11=
EXTT12=
EXTT13=
EXTT14=
EXTT15=
EXTT16=
EXTT17=
EXTT18=
EXTT19=
EXTT20=
EXTT21=
EXTT22=
EXTT23=
PLAYORDER=
